<svg width="30" height="30" viewBox="0 0 30 30" fill="none" xmlns="http://www.w3.org/2000/svg">
<g clip-path="url(#clip0_1_791)">
<path d="M19.0103 11.4479C18.5622 10.5933 17.5014 10.2617 16.6447 10.7103L9.58173 14.4157C8.72388 14.8653 8.39384 15.9229 8.84372 16.7813L12.7157 24.1633C13.1646 25.0182 14.2249 25.35 15.0817 24.9009L22.1451 21.1959C23.0026 20.7461 23.3326 19.6879 22.8827 18.8303L19.0103 11.4479ZM21.7486 20.4404L14.6852 24.1453C14.2463 24.3769 13.7019 24.2057 13.4712 23.7668L9.59922 16.3847C9.3705 15.9486 9.53286 15.4044 9.97779 15.1711L17.0408 11.4657C17.4873 11.2327 18.0278 11.4109 18.2548 11.8443L22.1272 19.2267C22.3587 19.6682 22.1881 20.2099 21.7486 20.4404Z" fill="#F4D059"/>
<path d="M24.8855 14.9655L28.7365 9.9417C29.0521 9.52802 29.1033 8.98214 28.873 8.51728C28.6469 8.05243 28.1821 7.76674 27.666 7.76674H27.3718V3.32714C27.3718 2.39743 26.6169 1.64258 25.6872 1.64258H21.9471C21.0174 1.64258 20.2625 2.39743 20.2625 3.32714V7.7667H19.9683C19.9213 7.7667 19.8787 7.77092 19.8318 7.77523L18.9234 6.03949C18.3221 4.90081 16.9062 4.45728 15.7675 5.05861L15.0169 5.45096L14.3218 4.12033C13.891 3.30151 12.876 2.98592 12.0572 3.41665L10.5433 4.20989C9.66899 3.31004 8.37252 2.65327 6.92678 2.40165C3.97561 1.88136 1.28031 3.15651 0.913549 5.24621C0.542519 7.33592 2.64502 9.45548 5.59193 9.97577C5.78384 10.0099 5.97149 10.0312 6.15914 10.0483L6.18046 10.0867L5.42991 10.479C4.28693 11.0761 3.84771 12.4919 4.44477 13.6349L11.4773 27.0431C12.0882 28.2089 13.5321 28.6202 14.6332 28.0283L24.9751 22.6078C26.1125 22.0083 26.56 20.6025 25.9559 19.4477L23.8748 15.4858C24.2713 15.4645 24.6381 15.2811 24.8855 14.9655ZM5.48105 8.76037L5.67296 9.12287C3.22502 8.66655 1.46796 7.00331 1.7537 5.39125C2.03943 3.77067 4.2912 2.80258 6.77752 3.24184C7.95031 3.44655 9.00796 3.94125 9.75428 4.62365L6.18899 6.49155C5.33959 6.93913 5.0646 7.97 5.48105 8.76037ZM25.201 19.8443C25.5763 20.5686 25.3161 21.4572 24.5784 21.853L14.2408 27.2735C13.5158 27.653 12.6159 27.3715 12.2363 26.6466L5.19958 13.2383C4.82002 12.5133 5.10149 11.6135 5.82649 11.2339L6.95237 10.6454C7.15708 10.5388 7.23384 10.2871 7.1358 10.0824C8.09109 10.0526 8.97389 9.83508 9.70315 9.46405C10.2036 9.82868 10.9056 9.93317 11.5583 9.59625C12.4217 9.14693 12.7556 8.07469 12.3046 7.20802C11.8483 6.34228 10.7779 6.00964 9.91212 6.4617C9.06771 6.90523 8.7308 7.94581 9.14447 8.79876C8.46212 9.11008 7.61344 9.26787 6.69653 9.23375L6.23594 8.36376C6.03209 7.97302 6.16946 7.46356 6.58565 7.2464L12.4496 4.17155C12.8548 3.95831 13.3537 4.11611 13.567 4.51699L14.4626 6.22287C14.5671 6.43206 14.8327 6.51338 15.0383 6.40199L16.1642 5.81346C16.855 5.44277 17.7699 5.6839 18.1643 6.43611L19.0514 8.1292C18.5692 8.55972 18.4468 9.34809 18.8935 9.9417L22.4162 14.5348L25.201 19.8443ZM9.88223 8.35949C9.72017 7.9288 9.89502 7.43405 10.3087 7.21655C10.4451 7.14405 10.5902 7.1142 10.7309 7.1142C10.6115 7.60037 10.313 8.02258 9.88223 8.35949ZM11.4985 7.53214C11.5156 7.55346 11.5327 7.57478 11.5497 7.60464C11.7805 8.05729 11.6051 8.61529 11.1616 8.8414C10.9612 8.94802 10.7394 8.96934 10.5219 8.91817C10.9825 8.53434 11.3194 8.06523 11.4985 7.53214ZM23.4184 14.4452L19.5716 9.4214C19.3224 9.08905 19.5528 8.61964 19.9683 8.61964H20.689C20.9235 8.61964 21.1155 8.42773 21.1155 8.19317V3.32714C21.1155 2.86655 21.4908 2.49552 21.9471 2.49552H25.6872C26.1478 2.49552 26.5188 2.86655 26.5188 3.32714V8.19317C26.5188 8.42773 26.7108 8.61964 26.9453 8.61964H27.666C27.858 8.61964 28.0243 8.72199 28.1096 8.89684C28.1949 9.0717 28.1778 9.26787 28.0584 9.4214L24.2074 14.4452C24.0197 14.6883 23.606 14.6883 23.4184 14.4452Z" fill="#F4D059"/>
<path d="M16.8347 14.4366C16.6056 14.3866 16.377 14.5316 16.3266 14.7615L15.0676 20.4934C15.0172 20.7237 15.1626 20.9511 15.3924 21.0015C15.6265 21.0521 15.8506 20.9037 15.9005 20.6766L17.1595 14.9447C17.2099 14.7144 17.0646 14.487 16.8347 14.4366Z" fill="#F4D059"/>
<path d="M14.8408 15.8429C14.4863 15.1574 13.6388 14.8871 12.9516 15.2411C12.2613 15.598 11.9942 16.4431 12.3494 17.1303C12.7038 17.8159 13.5496 18.0877 14.239 17.7325C14.9293 17.3757 15.1964 16.5306 14.8412 15.8434C14.8412 15.8433 14.8412 15.8433 14.8408 15.8429ZM13.8475 16.9745C13.5768 17.115 13.2466 17.0086 13.1074 16.7388C12.9701 16.4735 13.0688 16.1411 13.3431 15.9991C13.6123 15.8596 13.9445 15.9672 14.0836 16.2353C14.2208 16.5019 14.1207 16.8331 13.8475 16.9745Z" fill="#F4D059"/>
<path d="M17.833 17.8796C17.1467 18.2345 16.8768 19.082 17.2312 19.7684C17.5867 20.456 18.4295 20.7271 19.1204 20.371C19.8076 20.0158 20.0774 19.1682 19.7226 18.4814C19.3677 17.7955 18.5219 17.524 17.833 17.8796ZM18.7288 19.613C18.459 19.7514 18.1293 19.6486 17.9892 19.3769C17.8501 19.1083 17.9563 18.7763 18.2249 18.6372C18.4933 18.4981 18.8258 18.6043 18.9645 18.8729C19.1054 19.1459 18.9971 19.4746 18.7288 19.613Z" fill="#F4D059"/>
</g>
<defs>
<clipPath id="clip0_1_791">
<rect width="29" height="29" fill="white" transform="translate(0.443359 0.469727)"/>
</clipPath>
</defs>
</svg>
