<svg width="30" height="30" viewBox="0 0 30 30" fill="none" xmlns="http://www.w3.org/2000/svg">
<g clip-path="url(#clip0_1_803)">
<path d="M16.2078 14.484V13.4191H19.459V9.70918H17.6182L24.7549 0.425781H19.8725L14.8145 6.99609L9.75644 0.425781H4.87402L12.0164 9.70918H10.1756V13.4191H13.4268V14.484C9.99434 15.1354 7.39453 18.1543 7.39453 21.7736C7.39453 25.8687 10.725 29.1992 14.8201 29.1992C18.9152 29.1992 22.2457 25.8687 22.2457 21.7736C22.24 18.1543 19.6346 15.1354 16.2078 14.484ZM20.3256 1.35469H22.8688L16.44 9.70918H13.8969L15.3299 7.8457L15.3979 7.76074L20.3256 1.35469ZM9.30332 1.35469L14.2311 7.76074L12.9623 9.41465L6.76016 1.35469H9.30332ZM11.0988 12.4902V10.6324H12.0107H16.8932H18.5187V12.4902H16.1965H13.4098H11.0988ZM14.35 14.348V13.4191H15.2789V14.348H14.35ZM14.8145 28.2703C11.2291 28.2703 8.31777 25.3533 8.31777 21.7736C8.31777 18.1883 11.2348 15.277 14.8145 15.277C18.3998 15.277 21.3111 18.1939 21.3111 21.7736C21.3111 25.359 18.3998 28.2703 14.8145 28.2703Z" fill="#F4D059"/>
<path d="M14.8148 16.2061C11.7449 16.2061 9.24707 18.7039 9.24707 21.7738C9.24707 24.8437 11.7449 27.3416 14.8148 27.3416C17.8848 27.3416 20.3826 24.8437 20.3826 21.7738C20.3826 18.7039 17.8848 16.2061 14.8148 16.2061ZM14.8148 26.4127C12.2547 26.4127 10.176 24.3283 10.176 21.7738C10.176 19.2137 12.2604 17.135 14.8148 17.135C17.375 17.135 19.4537 19.2193 19.4537 21.7738C19.4537 24.334 17.375 26.4127 14.8148 26.4127Z" fill="#F4D059"/>
<path d="M14.8148 17.9502L13.9766 20.5387H11.2578L13.4611 22.1359L12.6115 24.7244L14.8148 23.1271L17.0182 24.7244L16.1742 22.1416L18.3775 20.5443H15.6588L14.8148 17.9502ZM15.251 22.2945L14.8148 21.9773L14.3787 22.2945L14.543 21.7848L14.1068 21.4676H14.6449L14.8092 20.9578L14.9734 21.4676H15.5115L15.0754 21.7848L15.251 22.2945Z" fill="#F4D059"/>
<path d="M14.3496 11.1025H15.2785V12.0314H14.3496V11.1025Z" fill="#F4D059"/>
<path d="M16.2078 11.1025H17.1367V12.0314H16.2078V11.1025Z" fill="#F4D059"/>
<path d="M12.4922 11.1025H13.4211V12.0314H12.4922V11.1025Z" fill="#F4D059"/>
</g>
<defs>
<clipPath id="clip0_1_803">
<rect width="29" height="29" fill="white" transform="translate(0.314453 0.3125)"/>
</clipPath>
</defs>
</svg>
