<svg width="27" height="29" viewBox="0 0 27 29" fill="none" xmlns="http://www.w3.org/2000/svg">
<path d="M26.346 4.59643L22.4137 0.664236C22.1667 0.417314 21.8384 0.281296 21.4891 0.281296H4.93299C4.21206 0.281296 3.62548 0.867874 3.62548 1.5888V14.5341H2.70603C1.73945 14.5341 0.953125 15.3205 0.953125 16.287V24.3042C0.953125 25.2707 1.73945 26.0571 2.70603 26.0571H16.5134C17.2344 26.0571 17.8209 25.4705 17.8209 24.7496V18.5141C17.8209 17.7931 17.2344 17.2065 16.5134 17.2065H2.70603C2.19901 17.2065 1.78657 16.7941 1.78657 16.287C1.78657 15.78 2.19901 15.3676 2.70603 15.3676H3.62548V15.8418C3.62548 16.072 3.81206 16.2585 4.0422 16.2585C4.27235 16.2585 4.45893 16.072 4.45893 15.8418V1.5888C4.45893 1.32738 4.67162 1.11474 4.93299 1.11474H20.9961V5.152C20.9961 5.6274 21.3828 6.01417 21.8582 6.01417H25.8954V27.422C25.8954 27.6835 25.6828 27.8961 25.4214 27.8961H4.93299C4.67157 27.8961 4.45893 27.6835 4.45893 27.422C4.45893 27.1919 4.27235 27.0053 4.0422 27.0053C3.81206 27.0053 3.62548 27.1919 3.62548 27.422C3.62548 28.143 4.21206 28.7295 4.93299 28.7295H25.4214C26.1424 28.7295 26.7289 28.143 26.7289 27.422V5.521C26.7289 5.17178 26.5929 4.8434 26.346 4.59643ZM2.70603 18.0399H16.5134C16.7748 18.0399 16.9875 18.2526 16.9875 18.5141V24.7497C16.9875 25.0111 16.7748 25.2237 16.5134 25.2237H2.70603C2.19901 25.2237 1.78657 24.8112 1.78657 24.3042V17.7789C2.05399 17.9444 2.36904 18.0399 2.70603 18.0399ZM21.8295 5.152V1.25882L25.7515 5.18073H21.8582C21.8424 5.18073 21.8295 5.16784 21.8295 5.152Z" fill="#00204A"/>
<path d="M12.7605 23.8159C12.9906 23.8159 13.1772 23.6294 13.1772 23.3992V22.0139H14.0801C14.3103 22.0139 14.4969 21.8273 14.4969 21.5971C14.4969 21.367 14.3103 21.1804 14.0801 21.1804H13.1772V20.2788H14.1941C14.4242 20.2788 14.6108 20.0922 14.6108 19.8621C14.6108 19.6319 14.4242 19.4454 14.1941 19.4454H12.7605C12.5303 19.4454 12.3438 19.6319 12.3438 19.8621V23.3992C12.3438 23.6293 12.5303 23.8159 12.7605 23.8159Z" fill="#00204A"/>
<path d="M8.38208 23.6547C8.46015 23.7322 8.56572 23.7757 8.67568 23.7757H8.67723C8.70685 23.7755 9.405 23.7729 9.68387 23.768C10.7136 23.75 11.4611 22.8509 11.4611 21.63C11.4611 20.3467 10.7325 19.4844 9.64797 19.4844H8.66868C8.55799 19.4844 8.45193 19.5284 8.37375 19.6068C8.29557 19.6851 8.25173 19.7913 8.25195 19.9019V19.9046V19.9047V23.3028C8.25195 23.3314 8.25484 23.3593 8.26034 23.3863C8.26701 23.4874 8.3098 23.583 8.38208 23.6547ZM9.64797 20.3179C10.3703 20.3179 10.6276 20.9957 10.6276 21.63C10.6276 22.5197 10.1463 22.9264 9.66931 22.9347C9.53674 22.937 9.30021 22.9388 9.09096 22.9401C9.08962 22.5313 9.08684 20.7431 9.08612 20.3179H9.64797Z" fill="#00204A"/>
<path d="M4.92063 23.8303C5.15077 23.8303 5.33735 23.6438 5.33735 23.4136V22.2804C5.54427 22.2792 5.77952 22.2782 5.91276 22.2782C6.70787 22.2782 7.35473 21.6402 7.35473 20.8559C7.35473 20.0717 6.70787 19.4336 5.91276 19.4336H4.92063C4.80989 19.4336 4.70371 19.4778 4.62548 19.5562C4.54758 19.6343 4.50396 19.7401 4.50396 19.8504H4.50391V23.4136C4.50391 23.6438 4.69049 23.8303 4.92063 23.8303ZM5.91276 20.2671C6.24264 20.2671 6.52129 20.5368 6.52129 20.856C6.52129 21.1751 6.24264 21.4448 5.91276 21.4448C5.78041 21.4448 5.5481 21.4459 5.34196 21.4469C5.34085 21.234 5.33919 20.4899 5.33857 20.2672H5.91276V20.2671Z" fill="#00204A"/>
<path d="M12.727 12.3651C11.7029 12.6884 10.6517 13.1358 10.0909 13.7146C9.62825 14.1922 9.5444 14.7462 9.86083 15.2348C10.0756 15.5663 10.3708 15.7396 10.7027 15.7396C10.8301 15.7396 10.963 15.7141 11.0987 15.6622C11.5884 15.4749 12.1172 14.9423 12.7155 14.0336C12.9086 13.7403 13.1042 13.4143 13.2988 13.0617C13.3696 13.0408 13.4419 13.0201 13.5158 12.9994C14.6918 12.6704 16.0223 12.4316 17.19 12.3318C17.9018 13.0201 18.6376 13.5564 19.2649 13.7027C19.9549 13.8637 20.502 13.5481 20.7279 12.8586C20.8648 12.4409 20.7072 12.0471 20.3063 11.8051C19.8942 11.5563 19.1779 11.4361 18.1779 11.4475C17.965 11.45 17.7402 11.4586 17.5062 11.4731C17.057 11.0098 16.5896 10.4562 16.1395 9.84469C15.7908 9.37102 15.4791 8.89701 15.2155 8.44645C15.2442 8.34772 15.2714 8.25031 15.2972 8.15464C15.5821 7.09822 15.6837 6.28939 15.5992 5.75054C15.4771 4.97238 14.9749 4.86186 14.7647 4.85053C14.0487 4.8118 13.5665 5.17302 13.4748 5.81671C13.4019 6.32806 13.5738 7.0316 13.9858 7.90771C14.0838 8.11596 14.1936 8.3306 14.3143 8.5498C14.2693 8.69404 14.2206 8.84412 14.1678 9.0003C13.7836 10.1368 13.2633 11.3478 12.727 12.3651ZM10.7258 14.904C10.6961 14.9077 10.646 14.914 10.5603 14.7817C10.4906 14.674 10.4868 14.5928 10.5463 14.4819C10.6854 14.2225 11.1605 13.8586 12.0796 13.4826C11.4381 14.4776 10.9586 14.8749 10.7258 14.904ZM19.9428 12.5707C19.9422 12.5759 19.9406 12.5851 19.936 12.5991C19.8319 12.9167 19.692 12.9467 19.4542 12.8912C19.1638 12.8234 18.795 12.6089 18.3836 12.2806C19.4975 12.2895 19.8861 12.4902 19.9428 12.5707ZM14.2998 5.93439C14.3168 5.81527 14.3359 5.68131 14.6529 5.68131C14.6729 5.68131 14.694 5.68186 14.7164 5.68292C14.8113 5.79854 14.8601 6.313 14.6405 7.33114C14.3819 6.738 14.2555 6.24527 14.2998 5.93439ZM14.8801 9.49065C15.063 9.77174 15.2598 10.0556 15.4683 10.3389C15.7675 10.7453 16.1054 11.1671 16.4628 11.5699C16.0493 11.6198 15.6228 11.6842 15.1962 11.7616C14.9074 11.814 14.4041 11.9129 13.8149 12.0598C13.9456 11.7888 14.0745 11.508 14.2005 11.2192C14.4511 10.6452 14.6816 10.058 14.8801 9.49065Z" fill="#00204A"/>
</svg>
