<svg width="15" height="15" viewBox="0 0 15 15" fill="none" xmlns="http://www.w3.org/2000/svg">
<path d="M13.994 3.64844H5.16406C4.63686 3.64844 4.20947 4.07582 4.20947 4.60303V13.433C4.20947 13.9602 4.63686 14.3876 5.16406 14.3876H13.994C14.5212 14.3876 14.9486 13.9602 14.9486 13.433V4.60303C14.9486 4.07582 14.5212 3.64844 13.994 3.64844ZM14.4713 4.60303V13.433C14.4707 13.4742 14.4648 13.5152 14.4537 13.5549L9.9165 9.01801L14.4537 4.48108C14.4648 4.5208 14.4707 4.56179 14.4713 4.60303ZM13.994 4.12573C14.0353 4.12629 14.0763 4.13231 14.116 4.14363L9.57905 8.68057L5.04212 4.14363C5.0818 4.13231 5.1228 4.12629 5.16406 4.12573H13.994ZM4.70443 13.5549C4.6933 13.5152 4.68736 13.4742 4.68677 13.433V4.60303C4.68736 4.56179 4.6933 4.5208 4.70443 4.48108L9.2416 9.01801L4.70443 13.5549ZM5.16406 13.9103C5.1228 13.9097 5.0818 13.9037 5.04212 13.8924L9.57905 9.35546L14.116 13.8924C14.0763 13.9037 14.0353 13.9097 13.994 13.9103H5.16406Z" fill="black"/>
<path d="M0.868042 4.12573H3.25452C3.38632 4.12573 3.49317 4.01889 3.49317 3.88709C3.49317 3.75528 3.38632 3.64844 3.25452 3.64844H0.868042C0.736241 3.64844 0.629395 3.75528 0.629395 3.88709C0.629395 4.01889 0.736241 4.12573 0.868042 4.12573Z" fill="black"/>
<path d="M0.868042 14.3875H3.25452C3.38632 14.3875 3.49317 14.2806 3.49317 14.1488C3.49317 14.017 3.38632 13.9102 3.25452 13.9102H0.868042C0.736241 13.9102 0.629395 14.017 0.629395 14.1488C0.629395 14.2806 0.736241 14.3875 0.868042 14.3875Z" fill="black"/>
<path d="M3.07112 6.4283C3.15547 6.52965 3.30602 6.54344 3.40738 6.45908C3.50873 6.37473 3.52251 6.22418 3.43816 6.12283L2.24492 4.69094C2.19804 4.63901 2.13136 4.60938 2.0614 4.60938C1.99144 4.60938 1.92476 4.63901 1.87788 4.69094L0.684643 6.12283C0.60029 6.22418 0.614073 6.37473 0.715428 6.45908C0.816784 6.54344 0.96733 6.52965 1.05168 6.4283L1.82275 5.50282V12.5372L1.05168 11.6117C0.96733 11.5104 0.816784 11.4966 0.715428 11.5809C0.614073 11.6653 0.60029 11.8158 0.684643 11.9172L1.87788 13.3491C1.92322 13.4036 1.99047 13.4352 2.0614 13.4352C2.13233 13.4352 2.19958 13.4036 2.24492 13.3491L3.43816 11.9172C3.49273 11.8516 3.50817 11.7619 3.47867 11.6819C3.44918 11.6019 3.37922 11.5436 3.29515 11.5292C3.21109 11.5147 3.12569 11.5462 3.07112 11.6117L2.30005 12.5372V5.50282L3.07112 6.4283Z" fill="black"/>
<path d="M14.7096 0.0703125C14.5778 0.0703125 14.471 0.177159 14.471 0.30896V2.69544C14.471 2.82724 14.5778 2.93409 14.7096 2.93409C14.8414 2.93409 14.9483 2.82724 14.9483 2.69544V0.30896C14.9483 0.177159 14.8414 0.0703125 14.7096 0.0703125Z" fill="black"/>
<path d="M4.44812 0.0703125C4.31632 0.0703125 4.20947 0.177159 4.20947 0.30896V2.69544C4.20947 2.82724 4.31632 2.93409 4.44812 2.93409C4.57992 2.93409 4.68677 2.82724 4.68677 2.69544V0.30896C4.68677 0.177159 4.57992 0.0703125 4.44812 0.0703125Z" fill="black"/>
<path d="M7.01874 0.156365C6.97821 0.10763 6.91995 0.0770211 6.85683 0.0712905C6.7937 0.0655599 6.73089 0.0851781 6.68224 0.125818L5.25036 1.31906C5.19598 1.3644 5.16455 1.43154 5.16455 1.50234C5.16455 1.57314 5.19598 1.64028 5.25036 1.68562L6.68224 2.87886C6.74772 2.93351 6.83739 2.94908 6.91746 2.9197C6.99753 2.89032 7.05584 2.82045 7.07043 2.73642C7.08502 2.65238 7.05367 2.56695 6.98819 2.5123L6.06247 1.74099H13.0969L12.1711 2.5123C12.1057 2.56695 12.0743 2.65238 12.0889 2.73642C12.1035 2.82045 12.1618 2.89032 12.2419 2.9197C12.3219 2.94908 12.4116 2.93351 12.4771 2.87886L13.909 1.68562C13.9634 1.64028 13.9948 1.57314 13.9948 1.50234C13.9948 1.43154 13.9634 1.3644 13.909 1.31906L12.4771 0.125818C12.4116 0.0711655 12.3219 0.0555982 12.2419 0.0849796C12.1618 0.114361 12.1035 0.184228 12.0889 0.268261C12.0743 0.352295 12.1057 0.437729 12.1711 0.492381L13.0969 1.26369H6.06247L6.98819 0.492381C7.08938 0.408009 7.10305 0.2576 7.01874 0.156365Z" fill="black"/>
</svg>
