<svg width="15" height="16" viewBox="0 0 15 16" fill="none" xmlns="http://www.w3.org/2000/svg">
<g clip-path="url(#clip0_1_1250)">
<path d="M14.0515 7.66022V4.6503C14.0515 4.2874 13.7563 3.99219 13.3934 3.99219H2.18428C1.82138 3.99219 1.52617 4.2874 1.52617 4.6503V7.66022C0.812016 8.01285 0.629395 8.38033 0.629395 8.66358V11.8241C0.629395 12.0634 0.824042 12.2581 1.06332 12.2581H1.55209C1.75821 12.2581 1.93717 12.1114 1.97761 11.9092L2.09367 11.329C2.11587 11.2178 2.21429 11.1372 2.32763 11.1372H13.25C13.3634 11.1372 13.4618 11.2178 13.484 11.329L13.6001 11.9093C13.6405 12.1114 13.8195 12.2581 14.0256 12.2581H14.5143C14.7536 12.2581 14.9483 12.0634 14.9483 11.8242V8.66358C14.9483 8.38033 14.7656 8.01285 14.0515 7.66022ZM1.94564 4.6503C1.94564 4.51871 2.0527 4.41169 2.18425 4.41169H13.3934C13.525 4.41169 13.632 4.51874 13.632 4.6503V7.47925C13.3855 7.38573 13.0955 7.29456 12.7548 7.20775C12.69 7.19125 12.6239 7.1752 12.5571 7.1594C12.6526 7.01699 12.7064 6.84726 12.7064 6.66794V5.99537C12.7064 5.50887 12.3106 5.11309 11.8241 5.11309H8.46137C8.19211 5.11309 7.95078 5.23446 7.78883 5.42522C7.62688 5.23446 7.38555 5.11309 7.11629 5.11309H3.75351C3.267 5.11309 2.87122 5.5089 2.87122 5.99537V6.66794C2.87122 6.8462 2.92514 7.01638 3.02098 7.15929C2.95403 7.17509 2.88778 7.19117 2.82284 7.20772C2.48218 7.29456 2.19214 7.38573 1.94564 7.47922V4.6503ZM12.2869 5.9954V6.66797C12.2869 6.82623 12.2075 6.97046 12.0769 7.0555C10.9067 6.82436 9.49177 6.69443 7.99855 6.68327V5.9954H7.99858C7.99858 5.74021 8.20617 5.53261 8.46137 5.53261H11.8241C12.0793 5.53261 12.2869 5.74021 12.2869 5.9954ZM7.57905 5.99537V6.68324C6.08581 6.6944 4.67078 6.82436 3.50066 7.0555C3.37037 6.97034 3.29072 6.82503 3.29072 6.66794V5.99537C3.29072 5.74018 3.49831 5.53258 3.75351 5.53258H7.11626C7.37146 5.53258 7.57905 5.74021 7.57905 5.99537ZM14.5288 11.8242C14.5288 11.8321 14.5223 11.8386 14.5143 11.8386H14.0256C14.0187 11.8386 14.0128 11.8337 14.0114 11.827L13.8954 11.2467C13.8341 10.9402 13.5627 10.7177 13.25 10.7177H2.32763C2.015 10.7177 1.74361 10.9402 1.68231 11.2467L1.56625 11.827C1.5649 11.8337 1.55895 11.8386 1.55209 11.8386H1.06332C1.05535 11.8386 1.04889 11.8321 1.04889 11.8242V10.0163H12.4967C12.6125 10.0163 12.7064 9.92235 12.7064 9.80652C12.7064 9.69068 12.6125 9.59677 12.4967 9.59677H1.04889V8.66361C1.04889 8.38766 1.54214 7.9671 2.92645 7.61422C4.22265 7.28382 5.94947 7.10187 7.78883 7.10187C9.62819 7.10187 11.355 7.28382 12.6512 7.61422C14.0355 7.96707 14.5287 8.38766 14.5287 8.66361V9.59677H13.3934C13.2775 9.59677 13.1836 9.69068 13.1836 9.80652C13.1836 9.92235 13.2775 10.0163 13.3934 10.0163H14.5288V11.8242Z" fill="black"/>
</g>
<defs>
<clipPath id="clip0_1_1250">
<rect width="14.3189" height="14.3189" fill="white" transform="translate(0.627441 0.960938)"/>
</clipPath>
</defs>
</svg>
