<svg width="28" height="31" viewBox="0 0 28 31" fill="none" xmlns="http://www.w3.org/2000/svg">
<path d="M26.92 15.0608C24.2429 10.5282 19.2579 7.71256 13.9313 7.71256C8.59555 7.71256 3.61978 10.5282 0.942652 15.0608C0.879208 15.1668 0.845703 15.2881 0.845703 15.4116C0.845703 15.5352 0.879208 15.6564 0.942652 15.7624C3.61978 20.2951 8.59555 23.1107 13.9313 23.1107C19.2671 23.1107 24.2429 20.2951 26.92 15.7624C26.9835 15.6564 27.017 15.5352 27.017 15.4116C27.017 15.2881 26.9835 15.1668 26.92 15.0608ZM2.34584 15.4208C3.74902 13.2053 5.77072 11.479 8.11551 10.3897C6.94311 11.7375 6.23229 13.5007 6.23229 15.4208C6.23229 17.341 6.94311 19.1042 8.11551 20.452C5.75167 19.3598 3.74967 17.614 2.34584 15.4208ZM13.9313 21.7352C10.4511 21.7352 7.61701 18.9011 7.61701 15.4208C7.61701 11.9406 10.4511 9.10651 13.9313 9.10651C17.4116 9.10651 20.2457 11.9406 20.2457 15.4208C20.2457 18.9011 17.4116 21.7352 13.9313 21.7352ZM19.7472 20.4428C20.9196 19.095 21.6304 17.3318 21.6304 15.4116C21.6304 13.4915 20.9196 11.7283 19.7472 10.3805C22.092 11.4698 24.1137 13.1961 25.5168 15.4116C24.1137 17.6272 22.092 19.3627 19.7472 20.4428ZM13.9313 10.9067C13.0385 10.9067 12.1657 11.1714 11.4234 11.6674C10.681 12.1635 10.1024 12.8685 9.76077 13.6933C9.4191 14.5182 9.32971 15.4258 9.50389 16.3015C9.67807 17.1772 10.108 17.9815 10.7393 18.6129C11.3706 19.2442 12.175 19.6741 13.0507 19.8483C13.9263 20.0225 14.834 19.9331 15.6588 19.5914C16.4837 19.2497 17.1887 18.6712 17.6848 17.9288C18.1808 17.1864 18.4455 16.3137 18.4455 15.4208C18.4455 12.9283 16.4146 10.9067 13.9313 10.9067ZM13.9313 18.5503C12.2051 18.5503 10.8019 17.1471 10.8019 15.4208C10.8019 13.6946 12.2051 12.2914 13.9313 12.2914C15.6576 12.2914 17.0608 13.6946 17.0608 15.4208C17.0608 17.1471 15.6576 18.5503 13.9313 18.5503ZM13.9313 12.5683C12.362 12.5683 11.0788 13.8423 11.0788 15.4208C11.0788 15.7993 11.3927 16.1132 11.7712 16.1132C12.1497 16.1132 12.4635 15.7993 12.4635 15.4208C12.4635 14.6177 13.119 13.953 13.9313 13.953C14.3098 13.953 14.6237 13.6392 14.6237 13.2607C14.6237 12.8822 14.3098 12.5683 13.9313 12.5683ZM24.1229 20.5628C23.7444 20.5628 23.4305 20.8766 23.4305 21.2551V24.2831H20.9934V23.5261C20.9934 23.1476 20.6796 22.8337 20.3011 22.8337C19.9226 22.8337 19.6087 23.1476 19.6087 23.5261V29.3788H8.25398V23.5261C8.25398 23.1476 7.94011 22.8337 7.56162 22.8337C7.18313 22.8337 6.86926 23.1476 6.86926 23.5261V24.2831H4.43215V21.2551C4.43215 20.8766 4.11828 20.5628 3.73979 20.5628C3.3613 20.5628 3.04743 20.8766 3.04743 21.2551V30.0712C3.04743 30.4497 3.3613 30.7636 3.73979 30.7636H24.1229C24.5014 30.7636 24.8153 30.4497 24.8153 30.0712V21.2551C24.8153 20.8766 24.5014 20.5628 24.1229 20.5628ZM6.86926 29.3788H4.43215V28.2157H6.86926V29.3788ZM6.86926 26.831H4.43215V25.6678H6.86926V26.831ZM23.4305 29.3788H20.9934V28.2157H23.4305V29.3788ZM23.4305 26.831H20.9934V25.6678H23.4305V26.831ZM3.73979 10.2697C4.11828 10.2697 4.43215 9.95581 4.43215 9.57732V6.54939H6.86926V7.30637C6.86926 7.68486 7.18313 7.99873 7.56162 7.99873C7.94011 7.99873 8.25398 7.68486 8.25398 7.30637V1.46285H19.6087V7.3156C19.6087 7.6941 19.9226 8.00797 20.3011 8.00797C20.6796 8.00797 20.9934 7.6941 20.9934 7.3156V6.55862H23.4305V9.58655C23.4305 9.96504 23.7444 10.2789 24.1229 10.2789C24.5014 10.2789 24.8153 9.96504 24.8153 9.58655V0.770486C24.8153 0.391995 24.5014 0.078125 24.1229 0.078125H3.73979C3.3613 0.078125 3.04743 0.391995 3.04743 0.770486V9.58655C3.04743 9.96504 3.35207 10.2697 3.73979 10.2697ZM20.9934 1.46285H23.4305V2.62601H20.9934V1.46285ZM20.9934 4.01074H23.4305V5.1739H20.9934V4.01074ZM4.43215 1.46285H6.86926V2.62601H4.43215V1.46285ZM4.43215 4.01074H6.86926V5.1739H4.43215V4.01074Z" fill="#F4D059"/>
</svg>
