<svg width="2560" height="2560" viewBox="0 0 2560 2560" fill="none" xmlns="http://www.w3.org/2000/svg">
<path d="M1197 950L1154.37 907.371C1153.61 906.607 1152.37 906.588 1151.59 907.327L1054.63 998.408C1054.23 998.786 1054 999.313 1054 999.865V1145C1054 1146.1 1054.9 1147 1056 1147H1166M1197 950L1279.12 872.8C1279.89 872.071 1281.1 872.077 1281.87 872.812L1362.5 950M1197 950L1166.66 977.404C1166.24 977.784 1166 978.323 1166 978.889V1147M1362.5 950L1406.62 907.332C1407.39 906.587 1408.61 906.581 1409.39 907.319L1505.38 998.409C1505.77 998.786 1506 999.311 1506 999.859V1145C1506 1146.1 1505.1 1147 1504 1147H1393.5M1362.5 950L1392.84 977.404C1393.26 977.784 1393.5 978.323 1393.5 978.889V1147M1166 1147H1247.5C1248.6 1147 1249.5 1146.1 1249.5 1145V1087.5C1249.5 1086.4 1250.4 1085.5 1251.5 1085.5H1309C1310.1 1085.5 1311 1086.4 1311 1087.5V1145C1311 1146.1 1311.9 1147 1313 1147H1393.5" stroke="#FACF39" stroke-width="20"/>
<path d="M653 1549.14V1297.86H596V1248.36H767.5V1297.86H709.5V1549.14H653Z" fill="#FACF39"/>
<path d="M1020 1549V1248.36H1071.5V1549H1020Z" fill="#FACF39"/>
<path d="M1133.5 1248.36H1209.66C1232.63 1248.36 1249.93 1250.95 1261.55 1256.15C1273.3 1261.21 1284.11 1269.82 1293.95 1281.99C1303.79 1294.16 1311.52 1309.95 1317.12 1329.36C1322.73 1348.78 1325.53 1372.91 1325.53 1401.75C1325.53 1427.73 1322.59 1450.36 1316.71 1469.63C1310.83 1488.78 1303.38 1503.95 1294.36 1515.16C1285.34 1526.37 1274.4 1534.85 1261.55 1540.59C1248.83 1546.2 1232.43 1549 1212.33 1549H1133.5V1248.36ZM1191 1296.86V1498.35H1205.77C1221.76 1498.35 1227.91 1494.18 1235.02 1491.17C1242.27 1488.16 1248.15 1483.65 1252.66 1477.63C1257.31 1471.48 1261.14 1461.84 1264.14 1448.72C1267.15 1435.59 1268.66 1418.3 1268.66 1396.83C1268.66 1374.55 1267.08 1356.98 1263.94 1344.13C1260.93 1331.28 1256.15 1321.16 1249.58 1313.78C1243.16 1306.39 1235.3 1301.54 1226 1299.21C1219.03 1297.44 1210.96 1296.86 1191 1296.86Z" fill="#FACF39"/>
<path d="M1370.56 1549V1248.36H1505V1296.86H1425V1365.87H1499.5V1416.52H1425V1498.35H1505V1549H1370.56Z" fill="#FACF39"/>
<path d="M1548.5 1549V1248.36L1619.5 1248.07L1707.5 1449.13V1248.36H1760.35V1549H1692L1602.45 1352.66V1548.71L1548.5 1549Z" fill="#FACF39"/>
<path d="M1849.5 1548.86V1297.57H1792.5V1248.07H1964V1297.57H1906V1548.86H1849.5Z" fill="#FACF39"/>
<path fill-rule="evenodd" clip-rule="evenodd" d="M798.5 1397.89C798.5 1535.25 798.649 1549.44 800.082 1549.99C800.952 1550.32 813.065 1550.6 827 1550.6C840.935 1550.6 853.048 1550.32 853.918 1549.99C855.335 1549.45 855.5 1543.36 855.5 1489.86V1431.93L865.188 1432.21L874.875 1432.5L898.244 1489.98C911.097 1521.59 922.15 1549.39 922.807 1549.81C924.341 1550.78 979.627 1550.81 981.143 1549.83C981.969 1549.3 981.775 1547.99 980.447 1545.1C977.561 1538.82 971.921 1524.41 952.502 1480C944.685 1462.12 935.66 1441.6 932.446 1434.38C925.108 1417.9 924.729 1416.48 927.306 1415.1C931.327 1412.95 940.553 1404.33 945.065 1398.5C955.341 1385.23 960.452 1370.57 962.491 1348.5C964.696 1324.63 960.617 1300.78 951.373 1283.5C946.597 1274.57 934.53 1263.05 925.387 1258.68C905.169 1249.02 897.322 1248 842.869 1248H798.5V1397.89ZM900.339 1311.68C896.009 1303.2 887.87 1298.52 874.82 1297.03C863 1296.36 860.5 1296.36 856.167 1296.67C855.8 1297.03 855.5 1316.61 855.5 1340.17V1383L866.25 1382.99C881.955 1382.97 889.348 1380.39 896.314 1372.47C902.547 1365.39 904.676 1358.12 905.233 1342C905.732 1327.54 904.484 1319.81 900.339 1311.68Z" fill="#FACF39"/>
<path d="M669.716 1713V1605.63H696.303L712.27 1678.87L728.09 1605.63H754.75V1713H738.271V1628.48L720.766 1713H703.627L686.269 1628.48V1713H669.716ZM768.959 1659.97C768.959 1647.18 770.839 1636.66 774.599 1628.41C778.407 1620.1 783.363 1613.93 789.467 1609.88C795.57 1605.82 802.968 1603.8 811.659 1603.8C824.257 1603.8 834.511 1608.61 842.421 1618.22C850.38 1627.84 854.359 1641.54 854.359 1659.31C854.359 1677.28 850.16 1691.32 841.762 1701.43C834.389 1710.36 824.379 1714.83 811.732 1714.83C798.988 1714.83 788.93 1710.41 781.557 1701.57C773.158 1691.47 768.959 1677.6 768.959 1659.97ZM787.27 1659.24C787.27 1671.59 789.613 1680.87 794.301 1687.07C798.988 1693.22 804.799 1696.3 811.732 1696.3C818.715 1696.3 824.501 1693.25 829.091 1687.15C833.681 1680.99 835.976 1671.57 835.976 1658.87C835.976 1646.42 833.729 1637.22 829.237 1631.26C824.794 1625.3 818.959 1622.33 811.732 1622.33C804.506 1622.33 798.622 1625.33 794.081 1631.33C789.54 1637.34 787.27 1646.64 787.27 1659.24ZM868.202 1605.63H900.648C908.852 1605.63 915.028 1606.55 919.179 1608.41C923.378 1610.22 927.235 1613.29 930.751 1617.64C934.267 1621.98 937.025 1627.62 939.027 1634.56C941.029 1641.49 942.03 1650.11 942.03 1660.41C942.03 1669.69 940.98 1677.77 938.881 1684.66C936.781 1691.49 934.12 1696.91 930.897 1700.92C927.675 1704.92 923.769 1707.95 919.179 1710C914.638 1712 908.778 1713 901.601 1713H868.202V1605.63ZM885.927 1623.79V1694.91H899.257C904.97 1694.91 909.096 1694.37 911.635 1693.3C914.223 1692.22 916.322 1690.61 917.934 1688.46C919.594 1686.27 920.961 1682.82 922.035 1678.14C923.109 1673.45 923.646 1667.27 923.646 1659.61C923.646 1651.65 923.085 1645.37 921.962 1640.78C920.888 1636.19 919.179 1632.58 916.835 1629.94C914.54 1627.31 911.732 1625.57 908.412 1624.74C905.922 1624.11 901.112 1623.79 893.983 1623.79H885.927ZM956.898 1605.63H974.623V1663.78C974.623 1672.81 974.843 1678.7 975.282 1681.43C976.063 1686.17 977.919 1689.83 980.849 1692.42C983.827 1695.01 987.733 1696.3 992.567 1696.3C996.669 1696.3 1000.01 1695.4 1002.6 1693.59C1005.19 1691.74 1006.95 1689.2 1007.88 1685.97C1008.85 1682.7 1009.34 1675.72 1009.34 1665.03V1605.63H1027.14V1662.02C1027.14 1676.43 1026.36 1686.85 1024.79 1693.3C1023.28 1699.69 1019.81 1704.89 1014.39 1708.9C1009.02 1712.85 1001.92 1714.83 993.08 1714.83C983.9 1714.83 976.723 1713.2 971.547 1709.92C966.42 1706.6 962.685 1701.96 960.341 1696.01C958.046 1690 956.898 1678.97 956.898 1662.9V1605.63ZM1046.33 1713V1606.51H1064.05V1694.91H1108.29V1713H1046.33ZM1200.36 1713H1181.02L1173.33 1688.61H1138.17L1130.92 1713H1112.03L1146.3 1605.63H1165.13L1200.36 1713ZM1167.62 1670.52L1155.53 1630.68L1143.59 1670.52H1167.62ZM1209.8 1713V1605.63H1247.23C1256.8 1605.63 1263.64 1606.6 1267.74 1608.56C1271.84 1610.46 1275.21 1613.81 1277.85 1618.59C1280.48 1623.33 1281.8 1629.02 1281.8 1635.66C1281.8 1644.05 1279.77 1650.82 1275.72 1655.94C1271.72 1661.07 1266 1664.29 1258.58 1665.61C1262.39 1668.35 1265.54 1671.35 1268.03 1674.62C1270.52 1677.84 1273.92 1683.65 1278.21 1692.05L1288.91 1713H1267.74L1254.85 1689.64C1250.21 1681.19 1247.06 1675.92 1245.4 1673.82C1243.74 1671.67 1241.98 1670.2 1240.13 1669.42C1238.27 1668.59 1235.29 1668.18 1231.19 1668.18H1227.53V1713H1209.8ZM1227.53 1651.04H1240.71C1248.77 1651.04 1253.9 1650.7 1256.09 1650.01C1258.29 1649.28 1260.07 1647.84 1261.44 1645.69C1262.81 1643.54 1263.49 1640.69 1263.49 1637.12C1263.49 1633.7 1262.81 1630.97 1261.44 1628.92C1260.07 1626.82 1258.22 1625.38 1255.87 1624.6C1254.21 1624.06 1249.4 1623.79 1241.44 1623.79H1227.53V1651.04ZM1332.85 1713V1605.63H1350.58V1647.89H1385.44V1605.63H1403.24V1713H1385.44V1666.05H1350.58V1713H1332.85ZM1418.03 1659.97C1418.03 1647.18 1419.91 1636.66 1423.67 1628.41C1427.48 1620.1 1432.44 1613.93 1438.54 1609.88C1444.64 1605.82 1452.04 1603.8 1460.73 1603.8C1473.33 1603.8 1483.58 1608.61 1491.49 1618.22C1499.45 1627.84 1503.43 1641.54 1503.43 1659.31C1503.43 1677.28 1499.23 1691.32 1490.83 1701.43C1483.46 1710.36 1473.45 1714.83 1460.8 1714.83C1448.06 1714.83 1438 1710.41 1430.63 1701.57C1422.23 1691.47 1418.03 1677.6 1418.03 1659.97ZM1436.34 1659.24C1436.34 1671.59 1438.69 1680.87 1443.37 1687.07C1448.06 1693.22 1453.87 1696.3 1460.8 1696.3C1467.79 1696.3 1473.57 1693.25 1478.16 1687.15C1482.75 1680.99 1485.05 1671.57 1485.05 1658.87C1485.05 1646.42 1482.8 1637.22 1478.31 1631.26C1473.87 1625.3 1468.03 1622.33 1460.8 1622.33C1453.58 1622.33 1447.69 1625.33 1443.15 1631.33C1438.61 1637.34 1436.34 1646.64 1436.34 1659.24ZM1517.2 1605.63H1534.93V1663.78C1534.93 1672.81 1535.15 1678.7 1535.58 1681.43C1536.37 1686.17 1538.22 1689.83 1541.15 1692.42C1544.13 1695.01 1548.04 1696.3 1552.87 1696.3C1556.97 1696.3 1560.32 1695.4 1562.9 1693.59C1565.49 1691.74 1567.25 1689.2 1568.18 1685.97C1569.15 1682.7 1569.64 1675.72 1569.64 1665.03V1605.63H1587.44V1662.02C1587.44 1676.43 1586.66 1686.85 1585.1 1693.3C1583.58 1699.69 1580.12 1704.89 1574.7 1708.9C1569.33 1712.85 1562.22 1714.83 1553.38 1714.83C1544.2 1714.83 1537.03 1713.2 1531.85 1709.92C1526.72 1706.6 1522.99 1701.96 1520.64 1696.01C1518.35 1690 1517.2 1678.97 1517.2 1662.9V1605.63ZM1601.65 1678.06L1619.01 1676.01C1620.96 1689.73 1627.36 1696.59 1638.2 1696.59C1643.57 1696.59 1647.79 1695.2 1650.87 1692.42C1653.94 1689.59 1655.48 1686.1 1655.48 1681.95C1655.48 1679.5 1654.95 1677.43 1653.87 1675.72C1652.8 1674.01 1651.16 1672.62 1648.96 1671.54C1646.77 1670.42 1641.44 1668.57 1633 1665.98C1625.43 1663.68 1619.89 1661.19 1616.37 1658.51C1612.86 1655.82 1610.05 1652.31 1607.95 1647.96C1605.9 1643.57 1604.87 1638.85 1604.87 1633.83C1604.87 1627.97 1606.19 1622.69 1608.83 1618C1611.51 1613.32 1615.2 1609.78 1619.89 1607.38C1624.57 1604.99 1630.36 1603.8 1637.25 1603.8C1647.6 1603.8 1655.68 1606.6 1661.49 1612.22C1667.3 1617.83 1670.38 1625.87 1670.72 1636.32L1652.92 1637.27C1652.14 1631.51 1650.45 1627.48 1647.87 1625.18C1645.28 1622.89 1641.59 1621.74 1636.81 1621.74C1632.02 1621.74 1628.33 1622.74 1625.75 1624.74C1623.16 1626.75 1621.86 1629.24 1621.86 1632.21C1621.86 1635.14 1623.04 1637.61 1625.38 1639.61C1627.72 1641.61 1633.12 1643.81 1641.57 1646.2C1650.5 1648.79 1656.95 1651.53 1660.9 1654.41C1664.91 1657.24 1667.96 1660.92 1670.06 1665.47C1672.16 1669.96 1673.21 1675.43 1673.21 1681.87C1673.21 1691.2 1670.33 1699.04 1664.56 1705.38C1658.85 1711.73 1649.89 1714.9 1637.68 1714.9C1616.1 1714.9 1604.09 1702.62 1601.65 1678.06ZM1687.64 1713V1605.63H1705.36V1713H1687.64ZM1722.65 1713V1605.63H1739.93L1775.97 1677.33V1605.63H1792.52V1713H1774.65L1739.2 1642.98V1713H1722.65ZM1852.21 1673.52V1655.43H1890.52V1698.21C1886.66 1702.75 1881.19 1706.65 1874.11 1709.92C1867.03 1713.2 1859.93 1714.83 1852.8 1714.83C1844.11 1714.83 1836.44 1712.71 1829.8 1708.46C1823.16 1704.16 1817.88 1697.77 1813.98 1689.27C1810.12 1680.72 1808.19 1670.69 1808.19 1659.17C1808.19 1647.35 1810.15 1637.24 1814.05 1628.84C1818.01 1620.45 1823.11 1614.17 1829.36 1610.02C1835.66 1605.87 1843.18 1603.8 1851.92 1603.8C1862.42 1603.8 1870.81 1606.48 1877.11 1611.85C1883.46 1617.17 1887.54 1625.01 1889.34 1635.36L1871.77 1639.39C1870.45 1633.87 1868.03 1629.65 1864.52 1626.72C1861 1623.79 1856.8 1622.33 1851.92 1622.33C1844.35 1622.33 1838.22 1625.28 1833.53 1631.19C1828.85 1637.05 1826.5 1646.01 1826.5 1658.07C1826.5 1671.01 1829.04 1680.85 1834.12 1687.58C1838.47 1693.4 1844.35 1696.3 1851.77 1696.3C1855.24 1696.3 1858.83 1695.5 1862.54 1693.88C1866.3 1692.22 1869.64 1689.98 1872.57 1687.15V1673.52H1852.21Z" fill="#FACF39"/>
</svg>
