<svg width="30" height="30" viewBox="0 0 30 30" fill="none" xmlns="http://www.w3.org/2000/svg">
<g clip-path="url(#clip0_1_816)">
<path d="M15.2754 18.5898C17.2741 18.5898 18.9004 16.9636 18.9004 14.9648C18.9004 12.9661 17.2741 11.3398 15.2754 11.3398C13.2767 11.3398 11.6504 12.9661 11.6504 14.9648C11.6504 16.9636 13.2767 18.5898 15.2754 18.5898ZM15.2754 12.2461C16.7748 12.2461 17.9941 13.4655 17.9941 14.9648C17.9941 16.4642 16.7748 17.6836 15.2754 17.6836C13.776 17.6836 12.5566 16.4642 12.5566 14.9648C12.5566 13.4655 13.776 12.2461 15.2754 12.2461Z" fill="#F4D059"/>
<path d="M15.2754 16.7773C16.275 16.7773 17.0879 15.9644 17.0879 14.9648C17.0879 13.9652 16.275 13.1523 15.2754 13.1523C14.2758 13.1523 13.4629 13.9652 13.4629 14.9648C13.4629 15.9644 14.2758 16.7773 15.2754 16.7773ZM15.2754 14.0586C15.7752 14.0586 16.1816 14.465 16.1816 14.9648C16.1816 15.4646 15.7752 15.8711 15.2754 15.8711C14.7756 15.8711 14.3691 15.4646 14.3691 14.9648C14.3691 14.465 14.7756 14.0586 15.2754 14.0586Z" fill="#F4D059"/>
<path d="M12.2984 20.3181L13.0904 19.9392C13.1611 19.9705 13.2322 20.0004 13.3038 20.0281L13.5952 20.8555H16.9551L17.2474 20.0281C17.3185 20 17.3897 19.9705 17.4608 19.9392L18.2529 20.3181L20.6291 17.9419L20.2502 17.1498C20.2815 17.0791 20.3114 17.008 20.3391 16.9364L21.166 16.645V13.2851L20.3386 12.9928C20.3105 12.9217 20.2811 12.8506 20.2498 12.7794L20.6286 11.9874L18.2524 9.61117L17.4604 9.98998C17.3897 9.95872 17.3185 9.92881 17.2469 9.90117L16.9556 9.07422H13.5957L13.3034 9.90163C13.2323 9.92972 13.1611 9.95917 13.09 9.99044L12.2979 9.61163L9.92172 11.9878L10.3005 12.7799C10.2693 12.8506 10.2394 12.9217 10.2117 12.9933L9.38477 13.2847V16.6446L10.2122 16.9368C10.2403 17.008 10.2697 17.0791 10.301 17.1503L9.92217 17.9423L12.2984 20.3181ZM10.291 16.0034V13.9258L10.9218 13.7033L10.9929 13.4958C11.0523 13.3223 11.1252 13.1474 11.2095 12.9761L11.306 12.779L11.0169 12.1745L12.486 10.7055L13.0904 10.9946L13.2875 10.898C13.4588 10.8138 13.6337 10.7413 13.8073 10.6815L14.0148 10.6103L14.2368 9.98047H16.3144L16.5369 10.6112L16.7444 10.6824C16.918 10.7417 17.0929 10.8147 17.2642 10.899L17.4613 10.9955L18.0657 10.7064L19.5348 12.1754L19.2457 12.7799L19.3422 12.977C19.4265 13.1483 19.499 13.3232 19.5588 13.4967L19.6299 13.7043L20.2598 13.9263V16.0039L19.629 16.2263L19.5579 16.4339C19.4985 16.6074 19.4256 16.7823 19.3413 16.9536L19.2448 17.1507L19.5339 17.7552L18.0648 19.2242L17.4604 18.9351L17.2633 19.0316C17.092 19.1159 16.9171 19.1884 16.7435 19.2482L16.536 19.3194L16.314 19.9492H14.2364L14.0139 19.3185L13.8064 19.2473C13.6328 19.188 13.4579 19.115 13.2866 19.0307L13.0895 18.9342L12.485 19.2233L11.016 17.7543L11.3051 17.1498L11.2086 16.9527C11.1243 16.7814 11.0518 16.6065 10.992 16.433L10.9209 16.2254L10.291 16.0034Z" fill="#F4D059"/>
<path d="M7.11914 21.7617H2.58789C1.83842 21.7617 1.22852 22.3716 1.22852 23.1211V27.6523C1.22852 28.4018 1.83842 29.0117 2.58789 29.0117H7.11914C7.86861 29.0117 8.47852 28.4018 8.47852 27.6523V23.1211C8.47852 22.3716 7.86861 21.7617 7.11914 21.7617ZM7.57227 27.6523C7.57227 27.902 7.36881 28.1055 7.11914 28.1055H2.58789C2.33822 28.1055 2.13477 27.902 2.13477 27.6523V23.1211C2.13477 22.8714 2.33822 22.668 2.58789 22.668H7.11914C7.36881 22.668 7.57227 22.8714 7.57227 23.1211V27.6523Z" fill="#F4D059"/>
<path d="M27.9629 11.3398H23.4316C22.6822 11.3398 22.0723 11.9498 22.0723 12.6992V17.2305C22.0723 17.9799 22.6822 18.5898 23.4316 18.5898H27.9629C28.7124 18.5898 29.3223 17.9799 29.3223 17.2305V12.6992C29.3223 11.9498 28.7124 11.3398 27.9629 11.3398ZM28.416 17.2305C28.416 17.4801 28.2126 17.6836 27.9629 17.6836H23.4316C23.182 17.6836 22.9785 17.4801 22.9785 17.2305V12.6992C22.9785 12.4495 23.182 12.2461 23.4316 12.2461H27.9629C28.2126 12.2461 28.416 12.4495 28.416 12.6992V17.2305Z" fill="#F4D059"/>
<path d="M5.30664 8.16797H9.83789C10.5874 8.16797 11.1973 7.55806 11.1973 6.80859V2.27734C11.1973 1.52788 10.5874 0.917969 9.83789 0.917969H5.30664C4.55717 0.917969 3.94727 1.52788 3.94727 2.27734V6.80859C3.94727 7.55806 4.55717 8.16797 5.30664 8.16797ZM4.85352 2.27734C4.85352 2.02767 5.05697 1.82422 5.30664 1.82422H9.83789C10.0876 1.82422 10.291 2.02767 10.291 2.27734V6.80859C10.291 7.05827 10.0876 7.26172 9.83789 7.26172H5.30664C5.05697 7.26172 4.85352 7.05827 4.85352 6.80859V2.27734Z" fill="#F4D059"/>
<path d="M3.94731 26.1054L3.36142 25.5195L2.7207 26.1603L3.94731 27.3869L6.98642 24.3478L6.3457 23.707L3.94731 26.1054Z" fill="#F4D059"/>
<path d="M9.70517 3.504L9.06445 2.86328L6.66606 5.26167L6.08017 4.67578L5.43945 5.3165L6.66606 6.54311L9.70517 3.504Z" fill="#F4D059"/>
<path d="M24.7911 15.6835L24.2052 15.0977L23.5645 15.7384L24.7911 16.965L27.8302 13.9259L27.1895 13.2852L24.7911 15.6835Z" fill="#F4D059"/>
<path d="M21.9617 20.8693L22.1815 21.7483L24.757 21.1044C22.6767 24.3271 19.1351 26.2932 15.275 26.2932C13.617 26.2932 12.0193 25.9434 10.5267 25.2533L10.1465 26.0757C11.7592 26.8215 13.4847 27.1994 15.275 27.1994C19.3798 27.1994 23.1498 25.1422 25.41 21.7601L25.7005 24.0837L26.5995 23.9714L26.0829 19.8389L21.9617 20.8693Z" fill="#F4D059"/>
<path d="M6.20077 16.8825L5.31944 16.6718L4.76662 18.9855C4.22469 17.6442 3.94738 16.2962 3.94738 14.9649C3.94738 13.2929 4.30308 11.6829 5.00452 10.179L4.183 9.79565C3.42538 11.4206 3.04113 13.1597 3.04113 14.9649C3.04113 16.4072 3.33792 17.8622 3.91792 19.3054L1.90061 18.193L1.46289 18.9868L5.2048 21.0495L6.20077 16.8825Z" fill="#F4D059"/>
<path d="M15.9796 4.61914L14.506 3.63677H15.275C19.514 3.63677 23.366 5.97399 25.3271 9.73628L26.1305 9.31714C24.0131 5.25442 19.8534 2.73052 15.275 2.73052H14.506L15.9796 1.74814L15.4771 0.994141L12.1924 3.18364L15.4766 5.37314L15.9796 4.61914Z" fill="#F4D059"/>
</g>
<defs>
<clipPath id="clip0_1_816">
<rect width="29" height="29" fill="white" transform="translate(0.775391 0.464844)"/>
</clipPath>
</defs>
</svg>
