<svg width="15" height="16" viewBox="0 0 15 16" fill="none" xmlns="http://www.w3.org/2000/svg">
<g clip-path="url(#clip0_1_1277)">
<path fill-rule="evenodd" clip-rule="evenodd" d="M2.19425 9.75563V12.6288C2.19425 12.7523 2.29448 12.8525 2.41798 12.8525H13.1571C13.2806 12.8525 13.3809 12.7523 13.3809 12.6288V11.993L13.9227 12.3773C13.9908 12.4256 14.0803 12.4319 14.1545 12.3934C14.2293 12.3554 14.2758 12.2784 14.2758 12.1948V10.8389C14.2758 10.7664 14.2409 10.6984 14.1814 10.6564L8.01129 6.27525V5.62776L9.22929 4.76326C9.33041 4.69167 9.35413 4.55206 9.28253 4.45093L8.64132 3.5475C8.60686 3.49917 8.55451 3.46651 8.49634 3.45622C8.43772 3.44637 8.37776 3.46025 8.32943 3.4947L1.39373 8.41905C1.33422 8.46111 1.29932 8.52913 1.29932 8.60161V9.95743C1.29932 10.0411 1.34585 10.1181 1.42058 10.1561C1.49486 10.1946 1.58435 10.1883 1.65237 10.14L2.19425 9.75563ZM7.56382 5.94502L2.64171 9.43793V12.4051H12.9334V11.6753L7.65824 7.93221C7.59917 7.89015 7.56382 7.82213 7.56382 7.74964V5.94502ZM8.01129 6.82429V7.6342L13.8283 11.7616V10.9544L8.01129 6.82429ZM8.40595 3.98915L8.78809 4.52745L1.74678 9.52429V8.71706L8.40595 3.98915Z" fill="black"/>
</g>
<defs>
<clipPath id="clip0_1_1277">
<rect width="14.3189" height="14.3189" fill="white" transform="translate(0.627441 0.992188)"/>
</clipPath>
</defs>
</svg>
