<svg width="15" height="15" viewBox="0 0 15 15" fill="none" xmlns="http://www.w3.org/2000/svg">
<path d="M14.7096 2.58887C14.8414 2.58887 14.9483 2.48202 14.9483 2.35022V0.918335C14.9483 0.786542 14.8414 0.679688 14.7096 0.679688H0.868042C0.736249 0.679688 0.629395 0.786542 0.629395 0.918335V2.35022C0.629395 2.48202 0.736249 2.58887 0.868042 2.58887H1.34534V14.5213H0.868042C0.736249 14.5213 0.629395 14.6281 0.629395 14.7599C0.629395 14.8917 0.736249 14.9986 0.868042 14.9986H14.7096C14.8414 14.9986 14.9483 14.8917 14.9483 14.7599C14.9483 14.6281 14.8414 14.5213 14.7096 14.5213H14.2323V2.58887H14.7096ZM12.8004 14.5213H2.77723V13.0894H12.8004V14.5213ZM12.8004 12.6121H2.77723V11.1802H12.8004V12.6121ZM12.8004 10.7029H2.77723V9.27101H12.8004V10.7029ZM12.8004 8.79371H2.77723V7.36183H12.8004V8.79371ZM12.8004 6.88453H2.77723V5.45264H12.8004V6.88453ZM12.8004 4.97535H2.77723V3.54346H12.8004V4.97535ZM13.755 14.5213H13.2777V3.30481C13.2777 3.17302 13.1709 3.06617 13.0391 3.06617H2.53858C2.40678 3.06617 2.29993 3.17302 2.29993 3.30481V14.5213H1.82263V2.58887H13.755V14.5213ZM1.10669 2.11157V1.15698H14.471V2.11157H1.10669Z" fill="black"/>
<path d="M7.07312 14.282H8.50501C8.6368 14.282 8.74366 14.1751 8.74366 14.0433C8.74366 13.9115 8.6368 13.8047 8.50501 13.8047H7.07312C6.94133 13.8047 6.83447 13.9115 6.83447 14.0433C6.83447 14.1751 6.94133 14.282 7.07312 14.282Z" fill="black"/>
</svg>
