<svg width="15" height="15" viewBox="0 0 15 15" fill="none" xmlns="http://www.w3.org/2000/svg">
<path d="M14.2323 7.9485H13.9937V2.93689C13.9937 1.74364 13.0391 0.789062 11.8459 0.789062C10.7896 0.789062 10.0298 1.57229 9.94485 2.7199C9.39031 2.82472 8.98208 3.30233 8.98208 3.89147C8.98208 4.03466 9.07753 4.13011 9.22072 4.13011H11.1299C11.2731 4.13011 11.3685 4.03466 11.3685 3.89147C11.3685 3.30885 10.9694 2.83521 10.4242 2.7234C10.4955 1.96506 10.951 1.26634 11.8459 1.26634C12.7766 1.26634 13.5164 2.00614 13.5164 2.93686V7.94847H6.33387C6.22592 7.39806 5.74998 6.99389 5.16372 6.99389C4.92508 6.70751 4.59097 6.51658 4.20914 6.51658C3.75572 6.51658 3.35001 6.7791 3.15908 7.16093C2.96815 7.06548 2.75337 6.99389 2.53859 6.99389C1.95232 6.99389 1.47639 7.39806 1.36844 7.94847H1.34534C0.939627 7.94847 0.629395 8.2587 0.629395 8.66441C0.629395 9.07012 0.939627 9.38036 1.34534 9.38036H1.63213L2.27606 11.9339C2.46699 12.6737 3.1352 13.1987 3.89888 13.1987H4.08981L3.77957 13.8192C3.70798 13.9386 3.75572 14.0818 3.87502 14.1295C3.89888 14.1533 3.94662 14.1533 3.97047 14.1533C4.06592 14.1533 4.13752 14.1056 4.18526 14.034L4.60288 13.1987H11.2254L11.6311 14.0101C11.6788 14.1056 11.7504 14.1533 11.8459 14.1533C11.8936 14.1533 11.9174 14.1533 11.9413 14.1056C12.0368 14.0578 12.0845 13.9147 12.0368 13.7954L11.7378 13.1975C12.4767 13.1712 13.1156 12.6552 13.3016 11.9578L13.9515 9.38036H14.2323C14.638 9.38036 14.9483 9.07012 14.9483 8.66441C14.9483 8.25873 14.638 7.9485 14.2323 7.9485ZM10.8674 3.65284H9.50709C9.60254 3.36646 9.88892 3.17553 10.1992 3.17553C10.5094 3.17553 10.7719 3.36646 10.8674 3.65284ZM2.53859 7.47119C2.75337 7.47119 2.9443 7.56664 3.11134 7.73371C3.15908 7.80531 3.25453 7.82916 3.34998 7.80531C3.44543 7.78145 3.49317 7.70986 3.51702 7.61438C3.58862 7.25641 3.875 6.99389 4.23297 6.99389C4.49549 6.99389 4.73413 7.11322 4.85346 7.35186C4.9012 7.44731 5.02051 7.49505 5.11598 7.47119C5.13984 7.47119 5.16372 7.47119 5.18758 7.47119C5.49781 7.47119 5.76033 7.66212 5.85578 7.9485H1.87035C1.96583 7.66212 2.22833 7.47119 2.53859 7.47119ZM12.872 11.8146C12.7288 12.3396 12.2515 12.7215 11.7027 12.7215H3.92273C3.37384 12.7215 2.89656 12.3396 2.75337 11.8146L2.13288 9.38038H13.4448L12.872 11.8146ZM14.2323 8.90308H13.755H1.82264H1.34534C1.20215 8.90308 1.1067 8.80763 1.1067 8.66444C1.1067 8.52125 1.20215 8.4258 1.34534 8.4258H1.58398H6.11828H14.2323C14.3755 8.4258 14.471 8.52125 14.471 8.66444C14.471 8.80763 14.3755 8.90308 14.2323 8.90308Z" fill="black"/>
<path d="M9.22155 5.20599C9.36474 5.20599 9.46019 5.11054 9.46019 4.96735V4.84801C9.46019 4.70482 9.36474 4.60938 9.22155 4.60938C9.07836 4.60938 8.98291 4.70482 8.98291 4.84801V4.96735C8.98291 5.11054 9.07836 5.20599 9.22155 5.20599Z" fill="black"/>
<path d="M9.22155 6.3023C9.36474 6.3023 9.46019 6.18297 9.46019 6.06366V5.80114C9.46019 5.65795 9.36474 5.5625 9.22155 5.5625C9.07836 5.5625 8.98291 5.65795 8.98291 5.80114V6.06366C8.98291 6.20682 9.07836 6.3023 9.22155 6.3023Z" fill="black"/>
<path d="M9.22155 7.23333C9.36474 7.23333 9.46019 7.13788 9.46019 6.99469V6.87536C9.46019 6.73217 9.36474 6.63672 9.22155 6.63672C9.07836 6.63672 8.98291 6.73217 8.98291 6.87536V6.99469C8.98291 7.13785 9.07836 7.23333 9.22155 7.23333Z" fill="black"/>
<path d="M10.1747 5.20599C10.3179 5.20599 10.4133 5.11054 10.4133 4.96735V4.84801C10.4133 4.70482 10.3179 4.60938 10.1747 4.60938C10.0315 4.60938 9.93604 4.70482 9.93604 4.84801V4.96735C9.93604 5.11054 10.0315 5.20599 10.1747 5.20599Z" fill="black"/>
<path d="M9.93604 6.06366C9.93604 6.20685 10.0315 6.3023 10.1747 6.3023C10.3179 6.3023 10.4133 6.18297 10.4133 6.06366V5.80114C10.4133 5.65795 10.3179 5.5625 10.1747 5.5625C10.0315 5.5625 9.93604 5.65795 9.93604 5.80114V6.06366Z" fill="black"/>
<path d="M9.93604 6.99469C9.93604 7.13788 10.0315 7.23333 10.1747 7.23333C10.3179 7.23333 10.4133 7.13788 10.4133 6.99469V6.87536C10.4133 6.73217 10.3179 6.63672 10.1747 6.63672C10.0315 6.63672 9.93604 6.73217 9.93604 6.87536V6.99469Z" fill="black"/>
<path d="M11.1298 5.20599C11.2729 5.20599 11.3684 5.11054 11.3684 4.96735V4.84801C11.3684 4.70482 11.2729 4.60938 11.1298 4.60938C10.9866 4.60938 10.8911 4.70482 10.8911 4.84801V4.96735C10.8911 5.11054 10.9866 5.20599 11.1298 5.20599Z" fill="black"/>
<path d="M10.8911 6.06366C10.8911 6.20685 10.9866 6.3023 11.1298 6.3023C11.2729 6.3023 11.3684 6.18299 11.3684 6.06366V5.80114C11.3684 5.65795 11.273 5.5625 11.1298 5.5625C10.9866 5.5625 10.8911 5.65795 10.8911 5.80114L10.8911 6.06366Z" fill="black"/>
<path d="M10.8911 6.99469C10.8911 7.13788 10.9866 7.23333 11.1298 7.23333C11.2729 7.23333 11.3684 7.13788 11.3684 6.99469V6.87536C11.3684 6.73217 11.2729 6.63672 11.1298 6.63672C10.9866 6.63672 10.8911 6.73217 10.8911 6.87536V6.99469Z" fill="black"/>
</svg>
