<svg width="15" height="16" viewBox="0 0 15 16" fill="none" xmlns="http://www.w3.org/2000/svg">
<g clip-path="url(#clip0_1_1231)">
<path d="M1.07861 14.3664C1.07861 14.4901 1.17879 14.5901 1.30235 14.5901H14.2716C14.3952 14.5901 14.4953 14.4901 14.4953 14.3664V11.1402C14.4953 11.0165 14.3952 10.9165 14.2716 10.9165H13.2828V7.9142C13.2828 7.79054 13.1827 7.69047 13.0591 7.69047H12.3085V4.68822C12.3085 4.56455 12.2083 4.46448 12.0848 4.46448H11.5074V1.46201C11.5074 1.33835 11.4072 1.23828 11.2837 1.23828H4.29029C4.16673 1.23828 4.06655 1.33835 4.06655 1.46201V4.46448H3.4892C3.36564 4.46448 3.26547 4.56455 3.26547 4.68822V7.69047H2.51485C2.39129 7.69047 2.29112 7.79054 2.29112 7.9142V10.9165H1.30235C1.17879 10.9165 1.07861 11.0165 1.07861 11.1402V14.3664ZM4.51402 1.68575H11.0599V4.46448H4.51402V1.68575ZM3.71293 4.91195H4.29029H11.2837H11.861V7.69047H3.71293V4.91195ZM2.73858 8.13793H3.4892H12.0848H12.8354V10.9165H2.73858V8.13793ZM1.52608 11.3639H2.51485H13.0591H14.0479V14.1427H1.52608V11.3639Z" fill="black"/>
</g>
<defs>
<clipPath id="clip0_1_1231">
<rect width="14.3189" height="14.3189" fill="white" transform="translate(0.627441 0.753906)"/>
</clipPath>
</defs>
</svg>
