<svg width="16" height="17" viewBox="0 0 16 17" fill="none" xmlns="http://www.w3.org/2000/svg">
<g clip-path="url(#clip0_1_1077)">
<path d="M15.5249 14.9989L11.1762 10.6502C13.1575 8.23956 13.0227 4.66103 10.7713 2.40961C8.37614 0.0145037 4.47904 0.0145037 2.08393 2.40961C-0.31118 4.80472 -0.31118 8.70183 2.08393 11.0969C4.33475 13.3478 7.91283 13.484 10.3245 11.5019L14.6732 15.8506C14.9084 16.0858 15.2897 16.0858 15.5249 15.8506C15.7601 15.6154 15.7601 15.2341 15.5249 14.9989ZM9.91962 10.2453C7.99411 12.1708 4.8611 12.1707 2.9356 10.2453C1.01009 8.31976 1.01009 5.18675 2.9356 3.26125C4.86104 1.33583 7.99405 1.33568 9.91962 3.26125C11.8451 5.18675 11.8451 8.31976 9.91962 10.2453Z" fill="#F4D059"/>
<path d="M9.37683 6.14781H7.03046V3.80144C7.03046 3.46884 6.76085 3.19922 6.42825 3.19922C6.09565 3.19922 5.82603 3.46884 5.82603 3.80144V6.14781H3.47966C3.14706 6.14781 2.87744 6.41743 2.87744 6.75002C2.87744 7.08262 3.14706 7.35224 3.47966 7.35224H5.82603V9.69861C5.82603 10.0312 6.09565 10.3008 6.42825 10.3008C6.76085 10.3008 7.03046 10.0312 7.03046 9.69861V7.35224H9.37683C9.70943 7.35224 9.97905 7.08262 9.97905 6.75002C9.97905 6.41743 9.70943 6.14781 9.37683 6.14781Z" fill="#F4D059"/>
</g>
<defs>
<clipPath id="clip0_1_1077">
<rect width="15.4137" height="15.4137" fill="white" transform="translate(0.285645 0.617188)"/>
</clipPath>
</defs>
</svg>
